<svg width="20" height="20" viewBox="0 0 20 20" fill="none" xmlns="http://www.w3.org/2000/svg">
<path d="M11.9057 0.376465C12.0513 0.376469 12.1931 0.42267 12.3107 0.508413C12.4283 0.594157 12.5157 0.715017 12.5602 0.85359L13.3165 3.20346C13.6341 3.35884 13.938 3.53346 14.2281 3.73009L16.6426 3.21034C16.785 3.17995 16.9333 3.19552 17.0662 3.25483C17.1992 3.31413 17.3099 3.4141 17.3823 3.54034L19.2881 6.83896C19.3609 6.96513 19.3917 7.11115 19.3761 7.25596C19.3605 7.40077 19.2994 7.5369 19.2015 7.64471L17.5446 9.47346C17.5687 9.82413 17.5687 10.176 17.5446 10.5267L19.2015 12.3582C19.2994 12.466 19.3605 12.6022 19.3761 12.747C19.3917 12.8918 19.3609 13.0378 19.2881 13.164L17.3823 16.464C17.3097 16.59 17.1989 16.6896 17.066 16.7487C16.933 16.8077 16.7848 16.8231 16.6426 16.7926L14.2281 16.2728C13.9393 16.4681 13.6341 16.6441 13.3178 16.7995L12.5602 19.1493C12.5157 19.2879 12.4283 19.4088 12.3107 19.4945C12.1931 19.5803 12.0513 19.6265 11.9057 19.6265H8.09422C7.94866 19.6265 7.80686 19.5803 7.68924 19.4945C7.57163 19.4088 7.48426 19.2879 7.43972 19.1493L6.68484 16.8008C6.36807 16.6459 6.06253 16.469 5.77047 16.2715L3.35734 16.7926C3.21498 16.823 3.06665 16.8074 2.93371 16.7481C2.80076 16.6888 2.69008 16.5888 2.61759 16.4626L0.711841 13.164C0.639068 13.0378 0.608244 12.8918 0.623813 12.747C0.639381 12.6022 0.700539 12.466 0.798466 12.3582L2.45534 10.5267C2.43134 10.177 2.43134 9.82597 2.45534 9.47622L0.798466 7.64471C0.700539 7.5369 0.639381 7.40077 0.623813 7.25596C0.608244 7.11115 0.639068 6.96513 0.711841 6.83896L2.61759 3.53896C2.69028 3.41298 2.80105 3.31329 2.93397 3.25424C3.0669 3.19519 3.21513 3.17982 3.35734 3.21034L5.77047 3.73146C6.06197 3.53484 6.36722 3.35747 6.68484 3.20209L7.44109 0.85359C7.48549 0.715464 7.57244 0.594923 7.68951 0.509221C7.80658 0.423519 7.94776 0.37705 8.09284 0.376465H11.9043H11.9057ZM11.4025 1.75146H8.59747L7.81647 4.18109L7.28984 4.43821C7.03095 4.5649 6.78104 4.70916 6.54184 4.86997L6.05509 5.19996L3.55809 4.66096L2.15559 7.09196L3.86747 8.98672L3.82622 9.56971C3.80646 9.85721 3.80646 10.1457 3.82622 10.4332L3.86747 11.0162L2.15284 12.911L3.55672 15.342L6.05372 14.8043L6.54047 15.133C6.77966 15.2938 7.02958 15.438 7.28847 15.5647L7.81509 15.8218L8.59747 18.2515H11.4052L12.189 15.8205L12.7142 15.5647C12.9728 15.4383 13.2223 15.2941 13.4608 15.133L13.9462 14.8043L16.4446 15.342L17.8471 12.911L16.1338 11.0162L16.1751 10.4332C16.1949 10.1453 16.1949 9.85629 16.1751 9.56834L16.1338 8.98534L17.8485 7.09196L16.4446 4.66096L13.9462 5.19722L13.4608 4.86997C13.2223 4.70883 12.9728 4.56457 12.7142 4.43821L12.189 4.18246L11.4038 1.75146H11.4025ZM9.99997 5.87646C11.094 5.87646 12.1432 6.31106 12.9168 7.08465C13.6904 7.85824 14.125 8.90745 14.125 10.0015C14.125 11.0955 13.6904 12.1447 12.9168 12.9183C12.1432 13.6919 11.094 14.1265 9.99997 14.1265C8.90595 14.1265 7.85674 13.6919 7.08315 12.9183C6.30956 12.1447 5.87497 11.0955 5.87497 10.0015C5.87497 8.90745 6.30956 7.85824 7.08315 7.08465C7.85674 6.31106 8.90595 5.87646 9.99997 5.87646ZM9.99997 7.25146C9.27062 7.25146 8.57115 7.5412 8.05542 8.05692C7.5397 8.57265 7.24997 9.27212 7.24997 10.0015C7.24997 10.7308 7.5397 11.4303 8.05542 11.946C8.57115 12.4617 9.27062 12.7515 9.99997 12.7515C10.7293 12.7515 11.4288 12.4617 11.9445 11.946C12.4602 11.4303 12.75 10.7308 12.75 10.0015C12.75 9.27212 12.4602 8.57265 11.9445 8.05692C11.4288 7.5412 10.7293 7.25146 9.99997 7.25146Z" fill="#353535"/>
</svg>
